<svg width="300" height="300" viewBox="0 0 300 300" fill="none" xmlns="http://www.w3.org/2000/svg">
<rect width="300" height="300" fill="#1A2736"/>
<path d="M168.101 98.5704L167.781 97.5H166.664H137H134.842L135.594 99.5228L173.61 201.763L173.973 202.74H175.016H198.344H199.391L199.752 201.758L237.336 99.5175L238.078 97.5H235.928H206.408H205.286L204.969 98.5761L186.67 160.688L168.101 98.5704Z" fill="white" stroke="white" stroke-width="3"/>
<path d="M96.1012 98.5704L95.7812 97.5H94.664H65H62.8419L63.594 99.5228L101.61 201.763L101.973 202.74H103.016H126.344H127.391L127.752 201.758L165.336 99.5175L166.078 97.5H163.928H134.408H133.286L132.969 98.5761L114.67 160.688L96.1012 98.5704Z" fill="white" stroke="white" stroke-width="3"/>
</svg>
